<?xml version="1.0" encoding="UTF-8"?>
<svg width="64" height="64" viewBox="0 0 64 64" fill="none" xmlns="http://www.w3.org/2000/svg">
  <!-- Background circle -->
  <circle cx="32" cy="32" r="30" fill="#3B82F6"/>
  
  <!-- Cloud shape for AI assistant -->
  <g transform="translate(16, 20)">
    <!-- Main cloud body -->
    <path d="M8 12C5.79086 12 4 10.2091 4 8C4 5.79086 5.79086 4 8 4C8.35064 4 8.68722 4.04738 9.00714 4.13594C9.62951 1.93238 11.6841 0.5 14 0.5C16.3159 0.5 18.3705 1.93238 18.9929 4.13594C19.3128 4.04738 19.6494 4 20 4C22.2091 4 24 5.79086 24 8C24 10.2091 22.2091 12 20 12H8Z" fill="white"/>
    
    <!-- Eyes -->
    <circle cx="12" cy="8" r="1.5" fill="#3B82F6"/>
    <circle cx="16" cy="8" r="1.5" fill="#3B82F6"/>
    
    <!-- Smile -->
    <path d="M10 11C10 11 12 13 14 13C16 13 18 11 18 11" stroke="#3B82F6" stroke-width="1.5" stroke-linecap="round"/>
  </g>
  
  <!-- Sparkle effects -->
  <g fill="#FCD34D">
    <circle cx="48" cy="16" r="2"/>
    <circle cx="52" cy="48" r="1.5"/>
    <circle cx="16" cy="48" r="1"/>
  </g>
  
  <!-- Plus signs for enhancement effect -->
  <g stroke="#FCD34D" stroke-width="2" stroke-linecap="round">
    <line x1="48" y1="14" x2="48" y2="18"/>
    <line x1="46" y1="16" x2="50" y2="16"/>
    
    <line x1="15" y1="47" x2="17" y2="49"/>
    <line x1="17" y1="47" x2="15" y2="49"/>
  </g>
</svg>
